<svg viewBox="0 0 980 700" xmlns="http://www.w3.org/2000/svg" font-family="Segoe UI, Arial, sans-serif">
  <defs>
    <linearGradient id="bg" x1="0%" y1="0%" x2="100%" y2="100%">
      <stop offset="0%" style="stop-color:#1E293B"/>
      <stop offset="100%" style="stop-color:#0F172A"/>
    </linearGradient>
    <filter id="sh"><feDropShadow dx="0" dy="3" stdDeviation="4" flood-color="#00000040"/></filter>
  </defs>

  <!-- Dark code editor background -->
  <rect width="980" height="700" fill="url(#bg)" rx="16"/>

  <!-- Title bar -->
  <rect x="0" y="0" width="980" height="48" rx="16" fill="#1E293B"/>
  <rect x="0" y="32" width="980" height="16" fill="#1E293B"/>
  <circle cx="28" cy="24" r="8" fill="#EF4444"/>
  <circle cx="56" cy="24" r="8" fill="#F59E0B"/>
  <circle cx="84" cy="24" r="8" fill="#10B981"/>
  <text x="500" y="29" text-anchor="middle" font-size="13" font-weight="bold" fill="#94A3B8">memory.json  — Full Data Structure</text>

  <!-- Code content -->
  <text x="40" y="74" font-size="13" fill="#94A3B8">{</text>

  <!-- version + lastUpdated -->
  <text x="60" y="96" font-size="12" fill="#7DD3FC">  "version"</text>
  <text x="188" y="96" font-size="12" fill="#94A3B8">: </text>
  <text x="200" y="96" font-size="12" fill="#86EFAC">"1.0"</text>
  <text x="238" y="96" font-size="12" fill="#94A3B8">,</text>

  <text x="60" y="116" font-size="12" fill="#7DD3FC">  "lastUpdated"</text>
  <text x="218" y="116" font-size="12" fill="#94A3B8">: </text>
  <text x="230" y="116" font-size="12" fill="#86EFAC">"2025-04-01T08:30:00Z"</text>
  <text x="450" y="116" font-size="12" fill="#94A3B8">,</text>

  <!-- user section -->
  <text x="60" y="140" font-size="12" fill="#7DD3FC">  "user"</text>
  <text x="138" y="140" font-size="12" fill="#94A3B8">: {</text>

  <text x="100" y="160" font-size="12" fill="#C4B5FD">    "workContext"</text>
  <text x="246" y="160" font-size="12" fill="#94A3B8">: {</text>
  <text x="278" y="160" font-size="12" fill="#7DD3FC">"summary"</text>
  <text x="380" y="160" font-size="12" fill="#94A3B8">: </text>
  <text x="394" y="160" font-size="12" fill="#86EFAC">"Product manager at a tech startup..."</text>
  <rect x="730" y="148" width="220" height="20" rx="4" fill="#1E3A8A" opacity="0.8"/>
  <text x="840" y="162" text-anchor="middle" font-size="10" fill="#BFDBFE">current role &amp; projects (2–3 sentences)</text>

  <text x="100" y="182" font-size="12" fill="#C4B5FD">    "personalContext"</text>
  <text x="276" y="182" font-size="12" fill="#94A3B8">: {</text>
  <text x="308" y="182" font-size="12" fill="#7DD3FC">"summary"</text>
  <text x="408" y="182" font-size="12" fill="#94A3B8">: </text>
  <text x="422" y="182" font-size="12" fill="#86EFAC">"Bilingual, prefers bullet points..."</text>
  <rect x="730" y="170" width="220" height="20" rx="4" fill="#1E3A8A" opacity="0.8"/>
  <text x="840" y="184" text-anchor="middle" font-size="10" fill="#BFDBFE">language, style, interests (1–2 sentences)</text>

  <text x="100" y="204" font-size="12" fill="#C4B5FD">    "topOfMind"</text>
  <text x="232" y="204" font-size="12" fill="#94A3B8">: {</text>
  <text x="264" y="204" font-size="12" fill="#7DD3FC">"summary"</text>
  <text x="364" y="204" font-size="12" fill="#94A3B8">: </text>
  <text x="378" y="204" font-size="12" fill="#86EFAC">"Working on Q3 report. Tracking AI trends..."</text>
  <rect x="730" y="192" width="220" height="20" rx="4" fill="#1E3A8A" opacity="0.8"/>
  <text x="840" y="206" text-anchor="middle" font-size="10" fill="#BFDBFE">3–5 active focus areas (most updated)</text>

  <text x="60" y="226" font-size="12" fill="#94A3B8">  },</text>

  <!-- history section -->
  <text x="60" y="250" font-size="12" fill="#7DD3FC">  "history"</text>
  <text x="162" y="250" font-size="12" fill="#94A3B8">: {</text>

  <text x="100" y="272" font-size="12" fill="#FCA5A5">    "recentMonths"</text>
  <text x="256" y="272" font-size="12" fill="#94A3B8">: {</text>
  <text x="288" y="272" font-size="12" fill="#7DD3FC">"summary"</text>
  <text x="388" y="272" font-size="12" fill="#94A3B8">: </text>
  <text x="402" y="272" font-size="12" fill="#86EFAC">"Has worked on AI research and slides..."</text>
  <rect x="730" y="260" width="220" height="20" rx="4" fill="#7F1D1D" opacity="0.7"/>
  <text x="840" y="274" text-anchor="middle" font-size="10" fill="#FCA5A5">last 1–3 months (4–6 sentences)</text>

  <text x="100" y="294" font-size="12" fill="#FCA5A5">    "earlierContext"</text>
  <text x="268" y="294" font-size="12" fill="#94A3B8">: {</text>
  <text x="300" y="294" font-size="12" fill="#7DD3FC">"summary"</text>
  <text x="400" y="294" font-size="12" fill="#94A3B8">: </text>
  <text x="414" y="294" font-size="12" fill="#86EFAC">"Previously built dashboards in Python..."</text>
  <rect x="730" y="282" width="220" height="20" rx="4" fill="#7F1D1D" opacity="0.7"/>
  <text x="840" y="296" text-anchor="middle" font-size="10" fill="#FCA5A5">3–12 months ago (3–5 sentences)</text>

  <text x="100" y="316" font-size="12" fill="#FCA5A5">    "longTermBackground"</text>
  <text x="300" y="316" font-size="12" fill="#94A3B8">: {</text>
  <text x="332" y="316" font-size="12" fill="#7DD3FC">"summary"</text>
  <text x="432" y="316" font-size="12" fill="#94A3B8">: </text>
  <text x="446" y="316" font-size="12" fill="#86EFAC">"10+ years in product, tech background..."</text>
  <rect x="730" y="304" width="220" height="20" rx="4" fill="#7F1D1D" opacity="0.7"/>
  <text x="840" y="318" text-anchor="middle" font-size="10" fill="#FCA5A5">foundational context (2–4 sentences)</text>

  <text x="60" y="338" font-size="12" fill="#94A3B8">  },</text>

  <!-- facts section -->
  <text x="60" y="362" font-size="12" fill="#7DD3FC">  "facts"</text>
  <text x="144" y="362" font-size="12" fill="#94A3B8">: [</text>

  <!-- fact 1 -->
  <text x="100" y="384" font-size="12" fill="#94A3B8">    {</text>
  <text x="130" y="402" font-size="12" fill="#7DD3FC">"id"</text>
  <text x="170" y="402" font-size="12" fill="#94A3B8">: </text>
  <text x="184" y="402" font-size="12" fill="#86EFAC">"fact_a1b2c3d4"</text>
  <text x="302" y="402" font-size="12" fill="#94A3B8">,  </text>
  <text x="324" y="402" font-size="12" fill="#7DD3FC">"content"</text>
  <text x="430" y="402" font-size="12" fill="#94A3B8">: </text>
  <text x="444" y="402" font-size="12" fill="#86EFAC">"Prefers bullet points over paragraphs"</text>

  <text x="130" y="420" font-size="12" fill="#7DD3FC">"category"</text>
  <text x="240" y="420" font-size="12" fill="#94A3B8">: </text>
  <text x="252" y="420" font-size="12" fill="#FDE68A">"preference"</text>
  <text x="354" y="420" font-size="12" fill="#94A3B8">,  </text>
  <text x="376" y="420" font-size="12" fill="#7DD3FC">"confidence"</text>
  <text x="490" y="420" font-size="12" fill="#94A3B8">: </text>
  <text x="502" y="420" font-size="12" fill="#F87171">0.95</text>
  <rect x="560" y="408" width="160" height="20" rx="4" fill="#14532D" opacity="0.8"/>
  <text x="640" y="422" text-anchor="middle" font-size="10" fill="#86EFAC">explicitly stated → 0.9+</text>

  <text x="130" y="438" font-size="12" fill="#7DD3FC">"createdAt"</text>
  <text x="238" y="438" font-size="12" fill="#94A3B8">: </text>
  <text x="252" y="438" font-size="12" fill="#86EFAC">"2025-04-01T08:30:00Z"</text>
  <text x="455" y="438" font-size="12" fill="#94A3B8">,  </text>
  <text x="470" y="438" font-size="12" fill="#7DD3FC">"source"</text>
  <text x="556" y="438" font-size="12" fill="#94A3B8">: </text>
  <text x="568" y="438" font-size="12" fill="#86EFAC">"thread_abc123"</text>

  <text x="100" y="456" font-size="12" fill="#94A3B8">    },</text>

  <!-- fact 2 abbreviated -->
  <text x="100" y="476" font-size="12" fill="#94A3B8">    {</text>
  <text x="130" y="494" font-size="12" fill="#7DD3FC">"id"</text>
  <text x="170" y="494" font-size="12" fill="#86EFAC">"fact_e5f6g7h8"</text>
  <text x="302" y="494" font-size="12" fill="#7DD3FC">"content"</text>
  <text x="408" y="494" font-size="12" fill="#86EFAC">"Uses Python + React stack"</text>
  <text x="130" y="512" font-size="12" fill="#FDE68A">"category": "knowledge"</text>
  <text x="330" y="512" font-size="12" fill="#F87171">"confidence": 0.88</text>
  <rect x="560" y="500" width="160" height="20" rx="4" fill="#713F12" opacity="0.8"/>
  <text x="640" y="514" text-anchor="middle" font-size="10" fill="#FDE68A">strongly implied → 0.7–0.8</text>
  <text x="100" y="530" font-size="12" fill="#94A3B8">    },</text>

  <text x="100" y="548" font-size="12" fill="#64748B">    ...  (up to 100 facts, sorted by confidence)</text>
  <text x="60" y="566" font-size="12" fill="#94A3B8">  ]</text>
  <text x="40" y="586" font-size="12" fill="#94A3B8">}</text>

  <!-- Categories legend -->
  <rect x="40" y="606" width="900" height="72" rx="10" fill="#1E3A8A" opacity="0.6"/>
  <text x="500" y="625" text-anchor="middle" font-size="11" font-weight="bold" fill="#BAE6FD">Fact Categories</text>
  <text x="100" y="645" font-size="11" fill="#FDE68A">preference</text>
  <text x="100" y="661" font-size="10" fill="#94A3B8">likes/dislikes</text>
  <text x="230" y="645" font-size="11" fill="#86EFAC">knowledge</text>
  <text x="230" y="661" font-size="10" fill="#94A3B8">expertise</text>
  <text x="360" y="645" font-size="11" fill="#FCA5A5">context</text>
  <text x="360" y="661" font-size="10" fill="#94A3B8">background info</text>
  <text x="490" y="645" font-size="11" fill="#C4B5FD">behavior</text>
  <text x="490" y="661" font-size="10" fill="#94A3B8">work patterns</text>
  <text x="620" y="645" font-size="11" fill="#7DD3FC">goal</text>
  <text x="620" y="661" font-size="10" fill="#94A3B8">stated objectives</text>
  <text x="780" y="645" font-size="11" fill="#F87171">confidence: 0.7 min</text>
  <text x="780" y="661" font-size="10" fill="#94A3B8">to be stored</text>
</svg>
