<svg viewBox="0 0 880 820" xmlns="http://www.w3.org/2000/svg" font-family="Segoe UI, Arial, sans-serif">
  <defs>
    <linearGradient id="bg" x1="0%" y1="0%" x2="0%" y2="100%">
      <stop offset="0%" style="stop-color:#0F172A"/>
      <stop offset="100%" style="stop-color:#1E293B"/>
    </linearGradient>
    <filter id="sh"><feDropShadow dx="0" dy="2" stdDeviation="4" flood-color="#00000040"/></filter>
    <filter id="glow"><feDropShadow dx="0" dy="0" stdDeviation="6" flood-color="#86EFAC60"/></filter>
  </defs>

  <rect width="880" height="820" fill="url(#bg)" rx="16"/>

  <!-- Title bar -->
  <rect x="0" y="0" width="880" height="44" rx="16" fill="#1E293B"/>
  <rect x="0" y="28" width="880" height="16" fill="#1E293B"/>
  <circle cx="28" cy="22" r="7" fill="#EF4444"/>
  <circle cx="52" cy="22" r="7" fill="#F59E0B"/>
  <circle cx="76" cy="22" r="7" fill="#10B981"/>
  <text x="440" y="26" text-anchor="middle" font-size="13" font-weight="bold" fill="#94A3B8">System Prompt Anatomy — Where Memory Lives</text>

  <!-- Left gutter labels -->
  <rect x="0" y="50" width="22" height="762" fill="#0F172A"/>

  <!-- Line numbers column -->
  <rect x="22" y="50" width="48" height="762" fill="#0F172A"/>

  <!-- Code area -->
  <rect x="70" y="50" width="790" height="762" fill="#0D1117" rx="0"/>

  <!-- BLOCK 1: role -->
  <rect x="70" y="50" width="790" height="52" fill="#0D1117"/>
  <text x="90" y="74" font-size="12" fill="#94A3B8">1</text>
  <text x="130" y="74" font-size="12" fill="#F87171">&lt;role&gt;</text>
  <text x="90" y="92" font-size="12" fill="#94A3B8">2</text>
  <text x="130" y="92" font-size="12" fill="#E2E8F0">  You are DeerFlow 2.0, an open-source super agent.</text>
  <rect x="680" y="58" width="170" height="32" rx="4" fill="#1E293B"/>
  <text x="765" y="76" text-anchor="middle" font-size="10" fill="#64748B">Agent identity</text>

  <!-- BLOCK 2: soul -->
  <text x="90" y="112" font-size="12" fill="#94A3B8">3</text>
  <text x="130" y="112" font-size="12" fill="#F87171">&lt;soul&gt;</text>
  <text x="90" y="130" font-size="12" fill="#94A3B8">4</text>
  <text x="130" y="130" font-size="12" fill="#94A3B8">  [agent personality — from SOUL.md]</text>
  <text x="90" y="148" font-size="12" fill="#94A3B8">5</text>
  <text x="130" y="148" font-size="12" fill="#F87171">&lt;/soul&gt;</text>
  <rect x="680" y="100" width="170" height="56" rx="4" fill="#1E293B"/>
  <text x="765" y="126" text-anchor="middle" font-size="10" fill="#64748B">Custom</text>
  <text x="765" y="142" text-anchor="middle" font-size="10" fill="#64748B">personality</text>

  <!-- SEPARATOR LINE -->
  <line x1="70" y1="160" x2="860" y2="160" stroke="#1E3A5F" stroke-width="1.5" stroke-dasharray="4,3"/>

  <!-- BLOCK 3: memory — HIGHLIGHTED -->
  <rect x="70" y="162" width="790" height="178" fill="#0D2A1A" filter="url(#glow)"/>
  <rect x="70" y="162" width="5" height="178" fill="#86EFAC"/>

  <text x="90" y="184" font-size="12" fill="#94A3B8">6</text>
  <text x="130" y="184" font-size="12" fill="#86EFAC" font-weight="bold">&lt;memory&gt;</text>
  <rect x="680" y="162" width="176" height="20" rx="0" fill="#134E2B"/>
  <text x="768" y="176" text-anchor="middle" font-size="10" fill="#86EFAC" font-weight="bold">← INJECTED HERE</text>

  <text x="90" y="204" font-size="12" fill="#94A3B8">7</text>
  <text x="130" y="204" font-size="11" fill="#6EE7B7">  User Context:</text>
  <text x="90" y="222" font-size="12" fill="#94A3B8">8</text>
  <text x="130" y="222" font-size="11" fill="#86EFAC">  - Work: PM at startup, uses Python + React</text>
  <text x="90" y="240" font-size="12" fill="#94A3B8">9</text>
  <text x="130" y="240" font-size="11" fill="#86EFAC">  - Current Focus: Preparing Q3 report...</text>
  <text x="90" y="258" font-size="12" fill="#94A3B8">10</text>
  <text x="130" y="258" font-size="11" fill="#6EE7B7">  History:</text>
  <text x="90" y="276" font-size="12" fill="#94A3B8">11</text>
  <text x="130" y="276" font-size="11" fill="#86EFAC">  - Recent: worked on AI research, slides...</text>
  <text x="90" y="294" font-size="12" fill="#94A3B8">12</text>
  <text x="130" y="294" font-size="11" fill="#6EE7B7">  Facts:</text>
  <text x="90" y="312" font-size="12" fill="#94A3B8">13</text>
  <text x="130" y="312" font-size="11" fill="#FDE68A">  - [preference|0.95] Prefers bullet points</text>
  <text x="90" y="330" font-size="12" fill="#94A3B8">14</text>
  <text x="130" y="330" font-size="11" fill="#86EFAC">  - [knowledge |0.88] Uses Python + React</text>
  <text x="90" y="336" font-size="12" fill="#94A3B8">15</text>
  <text x="130" y="336" font-size="11" fill="#86EFAC" font-weight="bold">&lt;/memory&gt;</text>

  <rect x="680" y="184" width="176" height="152" rx="4" fill="#134E2B"/>
  <text x="768" y="210" text-anchor="middle" font-size="10" fill="#86EFAC">format_memory_for_injection()</text>
  <text x="768" y="228" text-anchor="middle" font-size="10" fill="#6EE7B7">ranked by confidence</text>
  <text x="768" y="246" text-anchor="middle" font-size="10" fill="#6EE7B7">≤ 2000 tokens</text>
  <text x="768" y="264" text-anchor="middle" font-size="10" fill="#6EE7B7">tiktoken counted</text>
  <text x="768" y="282" text-anchor="middle" font-size="10" fill="#6EE7B7">per-agent OR global</text>
  <text x="768" y="300" text-anchor="middle" font-size="10" fill="#6EE7B7">memory.json</text>
  <text x="768" y="320" text-anchor="middle" font-size="10" fill="#6EE7B7">injected_enabled flag</text>

  <!-- SEPARATOR LINE -->
  <line x1="70" y1="342" x2="860" y2="342" stroke="#1E3A5F" stroke-width="1.5" stroke-dasharray="4,3"/>

  <!-- BLOCK 4: thinking_style -->
  <text x="90" y="362" font-size="12" fill="#94A3B8">16</text>
  <text x="130" y="362" font-size="12" fill="#F87171">&lt;thinking_style&gt;</text>
  <text x="90" y="380" font-size="12" fill="#94A3B8">17</text>
  <text x="130" y="380" font-size="12" fill="#94A3B8">  Think concisely and strategically...</text>
  <text x="90" y="398" font-size="12" fill="#94A3B8">18</text>
  <text x="130" y="398" font-size="12" fill="#F87171">&lt;/thinking_style&gt;</text>
  <rect x="680" y="350" width="170" height="56" rx="4" fill="#1E293B"/>
  <text x="765" y="380" text-anchor="middle" font-size="10" fill="#64748B">Reasoning</text>
  <text x="765" y="396" text-anchor="middle" font-size="10" fill="#64748B">instructions</text>

  <!-- BLOCK 5: skill_system -->
  <text x="90" y="420" font-size="12" fill="#94A3B8">19</text>
  <text x="130" y="420" font-size="12" fill="#F87171">&lt;skill_system&gt;</text>
  <text x="90" y="438" font-size="12" fill="#94A3B8">20</text>
  <text x="130" y="438" font-size="12" fill="#94A3B8">  [available skills list with paths]</text>
  <text x="90" y="456" font-size="12" fill="#94A3B8">21</text>
  <text x="130" y="456" font-size="12" fill="#F87171">&lt;/skill_system&gt;</text>
  <rect x="680" y="408" width="170" height="56" rx="4" fill="#1E293B"/>
  <text x="765" y="434" text-anchor="middle" font-size="10" fill="#64748B">Skill recipes</text>
  <text x="765" y="450" text-anchor="middle" font-size="10" fill="#64748B">available</text>

  <!-- BLOCK 6: subagent_system (conditional) -->
  <text x="90" y="478" font-size="12" fill="#94A3B8">22</text>
  <text x="130" y="478" font-size="12" fill="#F87171">&lt;subagent_system&gt;  </text>
  <text x="350" y="478" font-size="11" fill="#FCD34D">[only if subagent_enabled=true]</text>
  <text x="90" y="496" font-size="12" fill="#94A3B8">23</text>
  <text x="130" y="496" font-size="12" fill="#94A3B8">  DECOMPOSE, DELEGATE, SYNTHESIZE...</text>
  <text x="90" y="514" font-size="12" fill="#94A3B8">24</text>
  <text x="130" y="514" font-size="12" fill="#F87171">&lt;/subagent_system&gt;</text>
  <rect x="680" y="466" width="170" height="56" rx="4" fill="#1E293B"/>
  <text x="765" y="492" text-anchor="middle" font-size="10" fill="#64748B">Sub-agent</text>
  <text x="765" y="508" text-anchor="middle" font-size="10" fill="#64748B">orchestration rules</text>

  <!-- BLOCK 7: working_directory -->
  <text x="90" y="536" font-size="12" fill="#94A3B8">25</text>
  <text x="130" y="536" font-size="12" fill="#F87171">&lt;working_directory&gt;</text>
  <text x="90" y="554" font-size="12" fill="#94A3B8">26</text>
  <text x="130" y="554" font-size="12" fill="#94A3B8">  /mnt/user-data/{uploads,workspace,outputs}</text>
  <text x="90" y="572" font-size="12" fill="#94A3B8">27</text>
  <text x="130" y="572" font-size="12" fill="#F87171">&lt;/working_directory&gt;</text>
  <rect x="680" y="524" width="170" height="56" rx="4" fill="#1E293B"/>
  <text x="765" y="550" text-anchor="middle" font-size="10" fill="#64748B">Sandbox</text>
  <text x="765" y="566" text-anchor="middle" font-size="10" fill="#64748B">file paths</text>

  <!-- BLOCK 8: clarification + citations + critical_reminders -->
  <text x="90" y="594" font-size="12" fill="#94A3B8">28</text>
  <text x="130" y="594" font-size="12" fill="#F87171">&lt;clarification_system&gt;  &lt;citations&gt;  &lt;critical_reminders&gt;</text>
  <rect x="680" y="582" width="170" height="32" rx="4" fill="#1E293B"/>
  <text x="765" y="602" text-anchor="middle" font-size="10" fill="#64748B">Behavior rules</text>

  <!-- SEPARATOR LINE -->
  <line x1="70" y1="608" x2="860" y2="608" stroke="#1E3A5F" stroke-width="1.5" stroke-dasharray="4,3"/>

  <!-- BLOCK 9: current_date -->
  <text x="90" y="628" font-size="12" fill="#94A3B8">29</text>
  <text x="130" y="628" font-size="12" fill="#FDE68A">&lt;current_date&gt;</text>
  <text x="350" y="628" font-size="12" fill="#E2E8F0">2025-04-01, Tuesday</text>
  <text x="610" y="628" font-size="12" fill="#FDE68A">&lt;/current_date&gt;</text>
  <rect x="680" y="616" width="170" height="26" rx="4" fill="#1E293B"/>
  <text x="765" y="633" text-anchor="middle" font-size="10" fill="#64748B">Always appended last</text>

  <!-- SEPARATOR LINE -->
  <line x1="70" y1="648" x2="860" y2="648" stroke="#334155" stroke-width="2"/>

  <!-- USER MESSAGE -->
  <rect x="70" y="650" width="790" height="68" fill="#1E293B"/>
  <text x="90" y="672" font-size="12" fill="#94A3B8">30</text>
  <text x="130" y="672" font-size="12" fill="#7DD3FC">[User message injected by LangGraph]</text>
  <text x="90" y="692" font-size="12" fill="#94A3B8">31</text>
  <text x="130" y="692" font-size="12" fill="#E2E8F0">"Find the latest AI news and make me a 5-min podcast"</text>
  <rect x="680" y="656" width="170" height="56" rx="4" fill="#1E293B"/>
  <text x="765" y="680" text-anchor="middle" font-size="10" fill="#7DD3FC">Your message</text>
  <text x="765" y="696" text-anchor="middle" font-size="10" fill="#7DD3FC">arrives here</text>

  <!-- SEPARATOR LINE -->
  <line x1="70" y1="720" x2="860" y2="720" stroke="#334155" stroke-width="2"/>

  <!-- RESPONSE AREA -->
  <rect x="70" y="722" width="790" height="90" fill="#0D2A1A"/>
  <text x="90" y="748" font-size="12" fill="#94A3B8">→</text>
  <text x="130" y="748" font-size="12" fill="#86EFAC" font-weight="bold">AI reads ALL of the above, then responds</text>
  <text x="130" y="768" font-size="11" fill="#6EE7B7">Memory gives context: knows you prefer bullets → responds in bullets</text>
  <text x="130" y="786" font-size="11" fill="#6EE7B7">Memory gives context: knows your tech stack → gives relevant examples</text>
  <text x="130" y="804" font-size="11" fill="#6EE7B7">Memory gives context: knows your role → right level of detail</text>
</svg>
